# AST/ASF file generated using VICON BodyLanguage
# -----------------------------------------------
:version 1.10
:name VICON
:units
  mass 1.0
  length 0.45
  angle deg
:documentation
   .ast/.asf automatically generated from VICON data using
   VICON BodyBuilder and BodyLanguage model FoxedUp or BRILLIANT.MOD
:root
   order TX TY TZ RX RY RZ
   axis XYZ
   position 0 0 0  
   orientation 0 0 0 
:bonedata
  begin
     id 1 
     name lhipjoint
     direction 0.577973 -0.728611 0.367523 
     length 2.48544 
     axis 0 0 0  XYZ
  end
  begin
     id 2 
     name lfemur
     direction 0.34202 -0.939693 0  
     length 7.1921  
     axis 0 0 20  XYZ
    dof rx ry rz
    limits (-160.0 20.0)
           (-70.0 70.0)
           (-60.0 70.0)
  end
  begin
     id 3 
     name ltibia
     direction 0.34202 -0.939693 0   
     length 7.71059   
     axis 0 0 20   XYZ
    dof rx
    limits (-10.0 170.0)
  end
  begin
     id 4 
     name lfoot
     direction 0.089538 -0.246004 0.965124   
     length 2.19909   
     axis -90 7.62852e-016 20   XYZ
    dof rx rz
    limits (-45.0 90.0)
           (-70.0 20.0)
  end
  begin
     id 5 
     name ltoes
     direction 1.53544e-011 -4.21829e-011 1   
     length 1.10116   
     axis -90 7.62852e-016 20   XYZ
    dof rx
    limits (-90.0 20.0)
  end
  begin
     id 6 
     name rhipjoint
     direction -0.554414 -0.743062 0.374812   
     length 2.4371  
     axis 0 0 0  XYZ 
  end
  begin
     id 7 
     name rfemur
     direction -0.34202 -0.939693 0   
     length 7.47254   
     axis 0 0 -20   XYZ
    dof rx ry rz
    limits (-160.0 20.0)
           (-70.0 70.0)
           (-70.0 60.0)
  end
  begin
     id 8 
     name rtibia
     direction -0.34202 -0.939693 0   
     length 7.65855   
     axis 0 0 -20   XYZ
    dof rx
    limits (-10.0 170.0)
 end
 begin
     id 9 
     name rfoot
     direction -0.133779 -0.367555 0.92033   
     length 2.43006  
     axis -90 -7.62852e-016 -20   XYZ
    dof rx rz
    limits (-45.0 90.0)
           (-20.0 70.0)
  end
  begin
     id 10 
     name rtoes
     direction -1.53563e-011 -4.21889e-011 1   
     length 1.19625   
     axis -90 -7.62852e-016 -20   XYZ
    dof rx
    limits (-90.0 20.0)
  end
  begin
     id 11 
     name lowerback
     direction 0.0249066 0.998043 -0.0573585   
     length 2.08485   
     axis 0 0 0   XYZ
    dof rx ry rz
    limits (-20.0 45.0)
           (-30.0 30.0)
           (-30.0 30.0)
  end
  begin
     id 12 
     name upperback
     direction 0.0237884 0.999673 0.00943178   
     length 2.08515   
     axis 0 0 0   XYZ
    dof rx ry rz
    limits (-20.0 45.0)
           (-30.0 30.0)
           (-30.0 30.0)
  end
  begin
     id 13 
     name thorax
     direction 0.0106671 0.999301 0.0358174   
     length 2.09037   
     axis 0 0 0   XYZ
    dof rx ry rz
    limits (-20.0 45.0)
           (-30.0 30.0)
           (-30.0 30.0)
  end
  begin
     id 14 
     name lowerneck
     direction -0.0580016 0.987052 0.149546   
     length 1.84454   
     axis 0 0 0   XYZ
    dof rx ry rz
    limits (-20.0 45.0)
           (-30.0 30.0)
           (-30.0 30.0)
  end
  begin
     id 15 
     name upperneck
     direction 0.079456 0.981963 -0.171567   
     length 1.88141   
     axis 0 0 0   XYZ
    dof rx ry rz
    limits (-20.0 45.0)
           (-30.0 30.0)
           (-30.0 30.0)
  end
  begin
     id 16
     name head
     direction 0.0262167 0.9967 -0.0768276  
     length 1.89541  
     axis 0 0 0   XYZ
    dof rx ry rz
    limits (-20.0 45.0)
           (-30.0 30.0)
           (-30.0 30.0)
  end
  begin
     id 17 
     name lclavicle
     direction 0.946135 0.322134 -0.0325326  
     length 3.949  
     axis 0 0 0   XYZ
    dof ry rz
    limits (-20.0 10.0)
           (0.0 20.0)
  end
  begin
     id 18 
     name lhumerus
     direction 1 -4.48964e-011 1.94005e-028   
     length 5.10995   
     axis 180 -30 -90   XYZ
    dof rx ry rz
    limits (-60.0 90.0)
           (-90.0 90.0)
           (-90.0 90.0)
  end
  begin
     id 19
     name lradius
     direction 1 -4.48976e-011 2.87852e-027   
     length 3.21207   
     axis 180 -30 -90   XYZ
    dof rx
    limits (-10.0 170.0)
  end
  begin
     id 20
     name lwrist
     direction 1 -4.48963e-011 1.9975e-027   
     length 1.60604   
     axis 2.96054e-016 90 90   XYZ
    dof ry
    limits (-180.0 0.0)
 end
  begin
     id 21 
     name lhand
     direction 1 -4.48919e-011 4.00227e-027   
     length 0.63349   
     axis -2.5488e-015 90 90   XYZ
    dof rx rz
    limits (-90.0 90.0)
           (-45.0 45.0)
  end
  begin
     id 22 
     name lfingers
     direction 1 -4.49037e-011 7.9652e-027   
     length 0.510736   
     axis -5.0975e-015 90 90   XYZ
    dof rx
    limits (0.0 90.0)
  end
  begin
     id 23
     name lthumb
     direction 0.707107 -6.34922e-011 0.707107   
     length 0.733318   
     axis -90 45 -4.48553e-014   XYZ
    dof rx rz
    limits (-45.0 45.0)
           (-45.0 45.0)
  end
  begin
     id 24 
     name rclavicle
     direction -0.940085 0.328911 -0.0897654   
     length 3.93848  
     axis 0 0 0   XYZ 
    dof ry rz
    limits (-10.0 20.0)
           (-20.0 0.0)
  end
  begin
     id 25 
     name rhumerus
     direction -1 -4.48958e-011 3.02044e-027  
     length 5.25109   
     axis 180 30 90   XYZ
    dof rx ry rz
    limits (-90.0 60.0)
           (-90.0 90.0)
           (-90.0 90.0)
  end
  begin
     id 26 
     name rradius
     direction -1 -4.4897e-011 9.78352e-028   
     length 3.28364   
     axis 180 30 90   XYZ
    dof rx
    limits (-10.0 170.0)
  end
  begin
     id 27 
     name rwrist
     direction -1 -4.48943e-011 1.99918e-027   
     length 1.64182   
     axis 2.96054e-016 -90 -90   XYZ
    dof ry
    limits (-180.0 0.0)
  end
  begin
     id 28
     name rhand
     direction -1 -4.49024e-011 3.98478e-027   
     length 0.599745   
     axis -2.5488e-015 -90 -90   XYZ
    dof rx rz
    limits (-90.0 90.0)
           (-45.0 45.0)
  end
  begin
     id 29
     name rfingers
     direction -1 -4.48914e-011 8.00621e-027   
     length 0.48353   
     axis -5.0975e-015 -90 -90   XYZ
    dof rx
    limits (0.0 90.0)
  end
  begin
     id 30
     name rthumb
     direction -0.707107 -6.34992e-011 0.707107   
     length 0.694255   
     axis -90 -45 4.48553e-014   XYZ
    dof rx rz
    limits (-45.0 45.0)
           (-45.0 45.0)
  end
:hierarchy
  begin
    root lhipjoint rhipjoint lowerback
    lhipjoint lfemur
    lfemur ltibia
    ltibia lfoot
    lfoot ltoes
    rhipjoint rfemur
    rfemur rtibia
    rtibia rfoot
    rfoot rtoes
    lowerback upperback
    upperback thorax
    thorax lowerneck lclavicle rclavicle
    lowerneck upperneck
    upperneck head
    lclavicle lhumerus
    lhumerus lradius
    lradius lwrist
    lwrist lhand lthumb
    lhand lfingers
    rclavicle rhumerus
    rhumerus rradius
    rradius rwrist
    rwrist rhand rthumb
    rhand rfingers
  end

#!OML:ASF E:\CV Data\Top Level 1\Subject 1\Session 1\player.ASF
:FULLY-SPECIFIED
:DEGREES
697
root 7.87193 17.7624 -11.7031 11.2311 2.57063 0.0852069
lowerback 6.64264 7.06559 7.42947
upperback -2.57219 10.3325 3.66034
thorax -5.79431 4.88106 -1.38923
lowerneck -20.2109 -11.7404 -13.2449
upperneck 18.9056 -12.9937 3.43333
head 10.4826 -6.55253 1.27561
rclavicle 1.0138e-014 -1.59028e-014
rhumerus 39.1773 -15.7981 -99.1208
rradius 27.1911
rwrist -42.9855
rhand -29.2229 -13.9962
rfingers 7.12502
rthumb -2.56697 -43.9605
lclavicle 1.0138e-014 -1.59028e-014
lhumerus -36.4413 -1.52889 84.9744
lradius 48.9408
lwrist 3.07581
lhand -11.632 9.84735
lfingers 7.12502
lthumb 14.4116 39.327
rfemur -7.12514 -11.4963 21.0198
rtibia 21.283
rfoot -21.4939 -30.7524
rtoes 4.1628
lfemur -27.1051 -5.13491 -19.5523
ltibia 20.1104
lfoot -2.35748 -16.9542
ltoes 5.11306
698
root 7.87103 17.7642 -11.7086 11.2703 2.40571 0.0625319
lowerback 6.63978 7.0511 7.40299
upperback -2.5543 10.308 3.64789
thorax -5.77716 4.87078 -1.38437
lowerneck -20.2078 -11.6953 -13.2325
upperneck 18.9203 -12.9289 3.40794
head 10.4792 -6.52542 1.27659
rclavicle -1.13108e-013 -1.90833e-014
rhumerus 38.8106 -15.8645 -99.1163
rradius 26.9941
rwrist -43.2116
rhand -29.6182 -13.9323
rfingers 7.12502
rthumb -2.9487 -43.8916
lclavicle -1.13108e-013 -1.90833e-014
lhumerus -36.5049 -1.54488 85.024
lradius 48.5547
lwrist 2.84572
lhand -11.5546 9.83339
lfingers 7.12502
lthumb 14.4861 39.3077
rfemur -7.19154 -11.4268 21.027
rtibia 21.2625
rfoot -21.4627 -30.6515
rtoes 4.15374
lfemur -27.1325 -5.12303 -19.5002
ltibia 20.0776
lfoot -2.33227 -16.8066
ltoes 4.97023
699
root 7.87013 17.766 -11.7147 11.3111 2.24799 0.0336521
lowerback 6.64357 7.03395 7.38508
upperback -2.54372 10.2822 3.63662
thorax -5.77046 4.85895 -1.38413
lowerneck -20.1914 -11.6422 -13.2119
upperneck 18.9213 -12.8571 3.38222
head 10.4674 -6.4948 1.27854
rclavicle 4.87022e-014 6.36111e-015
rhumerus 38.478 -15.9552 -99.1217
rradius 26.731
rwrist -43.427
rhand -30.0678 -13.7837
rfingers 7.12502
rthumb -3.38297 -43.7366
lclavicle 4.87022e-014 6.36111e-015
lhumerus -36.5646 -1.56051 85.0722
lradius 48.1793
lwrist 2.61657
lhand -11.4313 9.76086
lfingers 7.12502
lthumb 14.605 39.2266
rfemur -7.26724 -11.3624 21.0433
rtibia 21.2522
rfoot -21.4285 -30.5525
rtoes 4.12862
lfemur -27.1667 -5.10722 -19.4426
ltibia 20.0462
lfoot -2.30243 -16.6677
ltoes 4.87045
700
root 7.86945 17.7677 -11.721 11.3501 2.09576 0.000424178
lowerback 6.65226 7.0119 7.37397
upperback -2.53275 10.2512 3.62879
thorax -5.76601 4.84421 -1.38413
lowerneck -20.1873 -11.5814 -13.1831
upperneck 18.9149 -12.7739 3.35237
head 10.4531 -6.4586 1.27946
rclavicle -1.51076e-014 -1.27222e-014
rhumerus 38.2177 -16.1017 -99.1899
rradius 26.3663
rwrist -43.5249
rhand -30.3513 -13.6328
rfingers 7.12502
rthumb -3.65676 -43.5812
lclavicle -1.51076e-014 -1.27222e-014
lhumerus -36.6149 -1.56803 85.1181
lradius 47.8186
lwrist 2.39204
lhand -11.2661 9.62756
lfingers 7.12502
lthumb 14.7641 39.0817
rfemur -7.34459 -11.3086 21.0638
rtibia 21.2477
rfoot -21.3957 -30.4471
rtoes 4.10182
lfemur -27.2026 -5.09055 -19.3817
ltibia 20.0181
lfoot -2.27303 -16.5336
ltoes 4.78836
701
root 7.86918 17.7692 -11.7273 11.3874 1.94556 -0.0275875
lowerback 6.66266 6.98323 7.35871
upperback -2.51771 10.2109 3.62313
thorax -5.75987 4.82525 -1.37893
lowerneck -20.1982 -11.5104 -13.1565
upperneck 18.9013 -12.6761 3.3344
head 10.4387 -6.41418 1.28689
rclavicle -3.93594e-014 1.59028e-015
rhumerus 37.9768 -16.3048 -99.3334
rradius 25.994
rwrist -43.4776
rhand -30.6136 -13.5057
rfingers 7.12502
rthumb -3.90998 -43.4495
lclavicle -3.93594e-014 1.59028e-015
lhumerus -36.6558 -1.56254 85.1626
lradius 47.4815
lwrist 2.19233
lhand -11.0871 9.44109
lfingers 7.12502
lthumb 14.9366 38.8825
rfemur -7.42144 -11.2766 21.0753
rtibia 21.2449
rfoot -21.3541 -30.327
rtoes 4.05877
lfemur -27.2388 -5.07291 -19.3295
ltibia 19.9944
lfoot -2.24841 -16.4042
ltoes 4.70961
702
root 7.86939 17.7705 -11.7329 11.4148 1.77988 -0.0603228
lowerback 6.67219 6.95554 7.34444
upperback -2.4894 10.1711 3.62548
thorax -5.74038 4.80742 -1.36498
lowerneck -20.2398 -11.4363 -13.1261
upperneck 18.8856 -12.5684 3.30819
head 10.4273 -6.36526 1.29121
rclavicle -4.27387e-014 -3.81667e-014
rhumerus 37.7909 -16.6296 -99.6262
rradius 25.5868
rwrist -43.181
rhand -30.7438 -13.3706
rfingers 7.12502
rthumb -4.03578 -43.3122
lclavicle -4.27387e-014 -3.81667e-014
lhumerus -36.686 -1.55324 85.2137
lradius 47.1765
lwrist 2.02504
lhand -10.9031 9.25874
lfingers 7.12502
lthumb 15.1139 38.6869
rfemur -7.4878 -11.2419 21.0841
rtibia 21.2409
rfoot -21.2994 -30.2003
rtoes 3.9926
lfemur -27.2624 -5.05804 -19.2725
ltibia 19.9763
lfoot -2.23161 -16.2547
ltoes 4.61859
703
root 7.87043 17.7716 -11.7376 11.4324 1.59821 -0.0876104
lowerback 6.67939 6.93048 7.32486
upperback -2.44795 10.133 3.63152
thorax -5.70698 4.79153 -1.34334
lowerneck -20.3033 -11.3707 -13.1093
upperneck 18.8801 -12.4678 3.2918
head 10.4258 -6.31902 1.2983
rclavicle 6.36111e-014 1.43125e-014
rhumerus 37.6279 -16.9983 -99.9531
rradius 25.1632
rwrist -42.7511
rhand -30.9128 -13.3169
rfingers 7.12502
rthumb -4.19896 -43.2552
lclavicle 6.36111e-014 1.43125e-014
lhumerus -36.7049 -1.54897 85.275
lradius 46.9025
lwrist 1.89646
lhand -10.7647 9.13804
lfingers 7.12502
lthumb 15.2472 38.5561
rfemur -7.5422 -11.2144 21.0763
rtibia 21.2349
rfoot -21.2293 -30.0605
rtoes 3.89899
lfemur -27.272 -5.04748 -19.2246
ltibia 19.9644
lfoot -2.2256 -16.086
ltoes 4.50784
704
root 7.87184 17.7725 -11.7416 11.4427 1.39612 -0.119071
lowerback 6.68827 6.91137 7.30736
upperback -2.39839 10.1027 3.64074
thorax -5.66563 4.77982 -1.3198
lowerneck -20.3879 -11.3091 -13.0891
upperneck 18.8801 -12.3686 3.26695
head 10.4293 -6.27379 1.30057
rclavicle -1.16885e-013 -2.70347e-014
rhumerus 37.451 -17.4431 -100.353
rradius 24.8003
rwrist -42.1755
rhand -30.8338 -13.3279
rfingers 7.12502
rthumb -4.12266 -43.2678
lclavicle -1.16885e-013 -2.70347e-014
lhumerus -36.7129 -1.55864 85.3504
lradius 46.6612
lwrist 1.81079
lhand -10.6693 9.09398
lfingers 7.12502
lthumb 15.339 38.5051
rfemur -7.58988 -11.1747 21.0659
rtibia 21.2294
rfoot -21.1523 -29.9168
rtoes 3.79715
lfemur -27.2704 -5.03325 -19.1735
ltibia 19.9566
lfoot -2.22655 -15.8989
ltoes 4.37988
705
root 7.87349 17.7734 -11.7454 11.447 1.18053 -0.154099
lowerback 6.70886 6.89897 7.29625
upperback -2.35089 10.0831 3.64716
thorax -5.63088 4.7727 -1.30507
lowerneck -20.469 -11.2599 -13.071
upperneck 18.8935 -12.2875 3.24325
head 10.439 -6.237 1.30018
rclavicle -9.40251e-014 1.59028e-015
rhumerus 37.2178 -17.864 -100.69
rradius 24.5116
rwrist -41.6581
rhand -30.5568 -13.4052
rfingers 7.12502
rthumb -3.85516 -43.35
lclavicle -9.40251e-014 1.59028e-015
lhumerus -36.7197 -1.59714 85.4349
lradius 46.4491
lwrist 1.76278
lhand -10.6161 9.12036
lfingers 7.12502
lthumb 15.3903 38.5275
rfemur -7.6363 -11.1239 21.0553
rtibia 21.2322
rfoot -21.0786 -29.7739
rtoes 3.69981
lfemur -27.2594 -5.02912 -19.1157
ltibia 19.9499
lfoot -2.23044 -15.6874
ltoes 4.22875
706
root 7.87429 17.7743 -11.7506 11.4639 0.990597 -0.186708
lowerback 6.73366 6.88063 7.27983
upperback -2.3145 10.0566 3.65238
thorax -5.61145 4.76156 -1.28969
lowerneck -20.5522 -11.2154 -13.0506
upperneck 18.9168 -12.2131 3.21688
head 10.4528 -6.20345 1.29702
rclavicle -7.95139e-015 1.27222e-014
rhumerus 36.9093 -18.2139 -100.925
rradius 24.315
rwrist -41.2695
rhand -30.2633 -13.4649
rfingers 7.12502
rthumb -3.57174 -43.4147
lclavicle -7.95139e-015 1.27222e-014
lhumerus -36.7224 -1.65145 85.5248
lradius 46.2639
lwrist 1.74026
lhand -10.5824 9.17616
lfingers 7.12502
lthumb 15.4228 38.5808
rfemur -7.67098 -11.0742 21.0559
rtibia 21.1802
rfoot -20.9856 -29.6504
rtoes 3.63935
lfemur -27.2308 -5.02757 -19.0564
ltibia 19.865
lfoot -2.187 -15.5083
ltoes 4.09698
707
root 7.87391 17.7751 -11.7573 11.4977 0.832655 -0.214147
lowerback 6.75785 6.85633 7.2507
upperback -2.29552 10.0226 3.65549
thorax -5.61236 4.74609 -1.27047
lowerneck -20.6172 -11.1724 -13.0293
upperneck 18.9437 -12.145 3.19374
head 10.4654 -6.17272 1.29456
rclavicle 1.2265e-013 6.36111e-014
rhumerus 36.4749 -18.4462 -100.999
rradius 24.2597
rwrist -41.0858
rhand -30.0777 -13.4999
rfingers 7.12502
rthumb -3.39253 -43.4527
lclavicle 1.2265e-013 6.36111e-014
lhumerus -36.7278 -1.72387 85.6178
lradius 46.1004
lwrist 1.73075
lhand -10.5558 9.22479
lfingers 7.12502
lthumb 15.4484 38.6275
rfemur -7.73596 -11.0274 21.0682
rtibia 21.151
rfoot -20.9182 -29.5508
rtoes 3.60993
lfemur -27.2259 -5.02009 -19.0006
ltibia 19.7736
lfoot -2.13631 -15.3701
ltoes 3.9901
